<svg xmlns="http://www.w3.org/2000/svg" xmlns:xlink="http://www.w3.org/1999/xlink" viewBox="0 0 108 115.04"><defs><style>.cls-1{fill:none;}.cls-2{isolation:isolate;}.cls-3{fill:#ae0000;}.cls-4{clip-path:url(#clip-path);}.cls-5{fill:#710000;}.cls-6{fill:#6d0000;}.cls-7{fill:#690000;}.cls-8{fill:#650000;}.cls-9{fill:#610000;}.cls-10{clip-path:url(#clip-path-2);}.cls-11{fill:#fff;}</style><clipPath id="clip-path"><path class="cls-1" d="M108,92.18v8.68A14.29,14.29,0,0,1,93.6,115v-8.68A14.29,14.29,0,0,0,108,92.18Z"/></clipPath><clipPath id="clip-path-2"><path class="cls-1" d="M14.4,106.36V115A14.29,14.29,0,0,1,0,100.86V92.18A14.29,14.29,0,0,0,14.4,106.36Z"/></clipPath></defs><title>delete_1</title><g id="Layer_2" data-name="Layer 2"><g id="Layer_1-2" data-name="Layer 1"><g class="cls-2"><path class="cls-3" d="M93.6,0A14.29,14.29,0,0,1,108,14.18v78a14.29,14.29,0,0,1-14.4,14.18H14.4A14.29,14.29,0,0,1,0,92.18v-78A14.3,14.3,0,0,1,14.4,0Z"/><g class="cls-2"><g class="cls-4"><g class="cls-2"><path class="cls-5" d="M108,92.18v8.68a14,14,0,0,1-.33,3V95.2a14,14,0,0,0,.33-3"/><path class="cls-6" d="M107.67,95.2v8.68a13.93,13.93,0,0,1-1,2.9V98.09a13.93,13.93,0,0,0,1-2.9"/><path class="cls-7" d="M106.69,98.09v8.68a14.14,14.14,0,0,1-1.74,2.82v-8.68a14.14,14.14,0,0,0,1.74-2.82"/><path class="cls-8" d="M105,100.91v8.68A14.45,14.45,0,0,1,93.6,115v-8.68A14.45,14.45,0,0,0,105,100.91"/></g></g></g><rect class="cls-9" x="14.4" y="106.36" width="79.2" height="8.68"/><g class="cls-2"><g class="cls-10"><g class="cls-2"><path class="cls-8" d="M14.4,106.36V115A14.29,14.29,0,0,1,0,100.86V92.18a14.29,14.29,0,0,0,14.4,14.18"/></g></g></g></g><g id="delete"><path class="cls-11" d="M74.74,19.34H58v-2a1.15,1.15,0,0,0-1.15-1.15H51.17A1.15,1.15,0,0,0,50,17.35v2H33.27a3.46,3.46,0,0,0-3.46,3.46v1.55A1.15,1.15,0,0,0,31,25.5H77a1.15,1.15,0,0,0,1.15-1.15V22.8A3.46,3.46,0,0,0,74.74,19.34Z"/><path class="cls-11" d="M76.92,28.49H31.09a1.15,1.15,0,0,0-1.15,1.27l8.22,58a3.46,3.46,0,0,0,3.44,3.11h8.06a1.15,1.15,0,0,0,1.15-1.15V87.78A1.16,1.16,0,0,1,52,86.63H56a1.16,1.16,0,0,1,1.15,1.15V89.7a1.15,1.15,0,0,0,1.15,1.15h8.27a3.46,3.46,0,0,0,3.44-3.12l8-58A1.15,1.15,0,0,0,76.92,28.49Z"/></g></g></g></svg>