<svg xmlns="http://www.w3.org/2000/svg" xmlns:xlink="http://www.w3.org/1999/xlink" viewBox="0 0 108 115.04"><defs><style>.cls-1{fill:none;}.cls-2{isolation:isolate;}.cls-3{fill:#005b8b;}.cls-4{clip-path:url(#clip-path);}.cls-5{fill:#003b5a;}.cls-6{fill:#003957;}.cls-7{fill:#003754;}.cls-8{fill:#003551;}.cls-9{fill:#00334e;}.cls-10{clip-path:url(#clip-path-2);}.cls-11{fill:#fff;}</style><clipPath id="clip-path"><path class="cls-1" d="M108,92.18v8.68A14.29,14.29,0,0,1,93.6,115v-8.68A14.29,14.29,0,0,0,108,92.18Z"/></clipPath><clipPath id="clip-path-2"><path class="cls-1" d="M14.4,106.36V115A14.29,14.29,0,0,1,0,100.86V92.18A14.29,14.29,0,0,0,14.4,106.36Z"/></clipPath></defs><title>home</title><g id="Layer_2" data-name="Layer 2"><g id="Layer_1-2" data-name="Layer 1"><g class="cls-2"><path class="cls-3" d="M93.6,0A14.29,14.29,0,0,1,108,14.18v78a14.29,14.29,0,0,1-14.4,14.18H14.4A14.29,14.29,0,0,1,0,92.18v-78A14.3,14.3,0,0,1,14.4,0Z"/><g class="cls-2"><g class="cls-4"><g class="cls-2"><path class="cls-5" d="M108,92.18v8.68a14,14,0,0,1-.33,3V95.2a14,14,0,0,0,.33-3"/><path class="cls-6" d="M107.67,95.2v8.68a13.93,13.93,0,0,1-1,2.9V98.09a13.93,13.93,0,0,0,1-2.9"/><path class="cls-7" d="M106.69,98.09v8.68a14.14,14.14,0,0,1-1.74,2.82v-8.68a14.14,14.14,0,0,0,1.74-2.82"/><path class="cls-8" d="M105,100.91v8.68A14.45,14.45,0,0,1,93.6,115v-8.68A14.45,14.45,0,0,0,105,100.91"/></g></g></g><rect class="cls-9" x="14.4" y="106.36" width="79.2" height="8.68"/><g class="cls-2"><g class="cls-10"><g class="cls-2"><path class="cls-8" d="M14.4,106.36V115A14.29,14.29,0,0,1,0,100.86V92.18a14.29,14.29,0,0,0,14.4,14.18"/></g></g></g></g><path id="home" class="cls-11" d="M70,36.69,57.26,25.75a5,5,0,0,0-6.52,0L38,36.69,23.75,48.94A5,5,0,0,0,22,52.73V77.5a5,5,0,0,0,5,5H40.56a5,5,0,0,0,5-5V66.17a5,5,0,0,1,5-5h6.89a5,5,0,0,1,5,5V77.5a5,5,0,0,0,5,5H81a5,5,0,0,0,5-5V52.73a5,5,0,0,0-1.74-3.79Z"/></g></g></svg>