<svg xmlns="http://www.w3.org/2000/svg" viewBox="0 0 108 115.04"><defs><style>.cls-1{fill:#db4316;}.cls-2{fill:#72210e;}.cls-3{fill:#fff;}</style></defs><title>icon_9</title><g id="Layer_2" data-name="Layer 2"><g id="Layer_1-2" data-name="Layer 1"><path class="cls-1" d="M93.6,0A14.29,14.29,0,0,1,108,14.18v78a14.29,14.29,0,0,1-14.4,14.18H14.4A14.29,14.29,0,0,1,0,92.18v-78A14.29,14.29,0,0,1,14.4,0Z"/><path class="cls-2" d="M93.6,106.36H14.4A14.29,14.29,0,0,1,0,92.18v8.68A14.29,14.29,0,0,0,14.4,115H93.6A14.29,14.29,0,0,0,108,100.86V92.18A14.29,14.29,0,0,1,93.6,106.36Z"/><path id="location_pin" data-name="location pin" class="cls-3" d="M77.39,31a26.51,26.51,0,0,0-46.79,0,19.64,19.64,0,0,0,.24,18.6l21,38.49a2.5,2.5,0,0,0,4.4,0l21-38.49A19.64,19.64,0,0,0,77.39,31ZM54,53.18A12.53,12.53,0,1,1,66.53,40.65,12.53,12.53,0,0,1,54,53.18Z"/></g></g></svg>