<svg xmlns="http://www.w3.org/2000/svg" viewBox="0 0 108 115.04"><defs><style>.cls-1{fill:#ff4062;}.cls-2{fill:#992941;}.cls-3{fill:#fff;}</style></defs><title>icon_10</title><g id="Layer_2" data-name="Layer 2"><g id="Layer_1-2" data-name="Layer 1"><path class="cls-1" d="M93.6,0A14.29,14.29,0,0,1,108,14.18v78a14.29,14.29,0,0,1-14.4,14.18H14.4A14.29,14.29,0,0,1,0,92.18v-78A14.29,14.29,0,0,1,14.4,0Z"/><path class="cls-2" d="M93.6,106.36H14.4A14.29,14.29,0,0,1,0,92.18v8.68A14.29,14.29,0,0,0,14.4,115H93.6A14.29,14.29,0,0,0,108,100.86V92.18A14.29,14.29,0,0,1,93.6,106.36Z"/><path id="heart" class="cls-3" d="M82.85,29.18h0a17.86,17.86,0,0,0-25.18,0l-2.26,2.26a2,2,0,0,1-2.83,0l-2.26-2.26a17.86,17.86,0,0,0-25.18,0h0a17.86,17.86,0,0,0,0,25.18L28.82,58,52.59,81.79a2,2,0,0,0,2.83,0L79.18,58l3.67-3.67A17.86,17.86,0,0,0,82.85,29.18Z"/></g></g></svg>