<svg xmlns="http://www.w3.org/2000/svg" viewBox="0 0 108 115.04"><defs><style>.cls-1{fill:#00aea7;}.cls-2{fill:#014742;}.cls-3{fill:#fff;}</style></defs><title>icon_2</title><g id="Layer_2" data-name="Layer 2"><g id="Layer_1-2" data-name="Layer 1"><path class="cls-1" d="M93.6,0A14.29,14.29,0,0,1,108,14.18v78a14.29,14.29,0,0,1-14.4,14.18H14.4A14.29,14.29,0,0,1,0,92.18v-78A14.29,14.29,0,0,1,14.4,0Z"/><path class="cls-2" d="M93.6,106.36H14.4A14.29,14.29,0,0,1,0,92.18v8.68A14.29,14.29,0,0,0,14.4,115H93.6A14.29,14.29,0,0,0,108,100.86V92.18A14.29,14.29,0,0,1,93.6,106.36Z"/><g id="mail"><path class="cls-3" d="M84.89,38.2A1,1,0,0,0,85.4,37c-1-4.13-4.88-5.85-9.48-5.85H32.08c-4.6,0-8.47,1.72-9.47,5.85a1,1,0,0,0,.51,1.15L51.63,52.93a5.69,5.69,0,0,0,4.74,0Z"/><path class="cls-3" d="M84.85,42.93l-28.33,13a6.06,6.06,0,0,1-5,0l-28.33-13a.5.5,0,0,0-.71.45l-.11,24.78a7,7,0,0,0,7,7H78.66a7,7,0,0,0,7-7l-.11-24.78A.5.5,0,0,0,84.85,42.93Z"/></g></g></g></svg>