<svg xmlns="http://www.w3.org/2000/svg" viewBox="0 0 108 115.04"><defs><style>.cls-1{fill:#199aa8;}.cls-2{fill:#0e5356;}.cls-3{fill:#fff;}</style></defs><title>icon_6</title><g id="Layer_2" data-name="Layer 2"><g id="Layer_1-2" data-name="Layer 1"><path class="cls-1" d="M93.6,0A14.29,14.29,0,0,1,108,14.18v78a14.29,14.29,0,0,1-14.4,14.18H14.4A14.29,14.29,0,0,1,0,92.18v-78A14.29,14.29,0,0,1,14.4,0Z"/><path class="cls-2" d="M93.6,106.36H14.4A14.29,14.29,0,0,1,0,92.18v8.68A14.29,14.29,0,0,0,14.4,115H93.6A14.29,14.29,0,0,0,108,100.86V92.18A14.29,14.29,0,0,1,93.6,106.36Z"/><path id="setting" class="cls-3" d="M86.09,59.83l-2.42-1.25a2.67,2.67,0,0,1-1.41-2.65q.13-1.36.13-2.75t-.13-2.75a2.67,2.67,0,0,1,1.41-2.65l2.42-1.25a5,5,0,0,0,2.12-6.66l-3.59-6.94A5,5,0,0,0,78,30.81l-2.41,1.25a2.7,2.7,0,0,1-3-.38,28.39,28.39,0,0,0-8-4.86,2.69,2.69,0,0,1-1.71-2.49v-2.7a5,5,0,0,0-4.94-4.94H50.09a5,5,0,0,0-4.94,4.94v2.7a2.69,2.69,0,0,1-1.71,2.49,28.39,28.39,0,0,0-8,4.86,2.7,2.7,0,0,1-3,.38L30,30.81a5,5,0,0,0-6.66,2.12l-3.59,6.94a5,5,0,0,0,2.12,6.66l2.42,1.25a2.67,2.67,0,0,1,1.41,2.65q-.13,1.36-.13,2.75t.13,2.75a2.67,2.67,0,0,1-1.41,2.65l-2.42,1.25a5,5,0,0,0-2.12,6.66l3.59,6.94A5,5,0,0,0,30,75.55l2.41-1.25a2.7,2.7,0,0,1,3,.38,28.39,28.39,0,0,0,8,4.86A2.69,2.69,0,0,1,45.15,82v2.7a5,5,0,0,0,4.94,4.94h7.81a5,5,0,0,0,4.94-4.94V82a2.69,2.69,0,0,1,1.71-2.49,28.39,28.39,0,0,0,8-4.86,2.7,2.7,0,0,1,3-.38L78,75.55a5,5,0,0,0,6.66-2.12l3.59-6.94A5,5,0,0,0,86.09,59.83ZM54,69.08a15.9,15.9,0,1,1,15.9-15.9A15.9,15.9,0,0,1,54,69.08Z"/></g></g></svg>