<?xml version="1.0" encoding="utf-8"?>
<!-- Generator: Adobe Illustrator 21.1.0, SVG Export Plug-In . SVG Version: 6.00 Build 0)  -->
<svg version="1.1" xmlns="http://www.w3.org/2000/svg" xmlns:xlink="http://www.w3.org/1999/xlink" x="0px" y="0px"
	 viewBox="0 0 728.8 267" style="enable-background:new 0 0 728.8 267;" xml:space="preserve">
<style type="text/css">
	.st0{display:none;fill:#231F20;}
	.st1{fill:#F88600;}
	.st2{fill:#8C4504;}
	.st3{fill:#FFFFFF;}
	.st4{fill:#199AA8;}
	.st5{fill:#0E5356;}
	.st6{fill:#C20000;}
	.st7{fill:#600101;}
	.st8{fill:#8ED362;}
	.st9{fill:#507538;}
	.st10{fill:#CE3C65;}
	.st11{fill:#70233B;}
	.st12{fill:#FFCF03;}
	.st13{fill:#7F6703;}
	.st14{fill:#DB4316;}
	.st15{fill:#72210E;}
	.st16{fill:#FF4062;}
	.st17{fill:#992941;}
	.st18{fill:#00659B;}
	.st19{fill:#054359;}
	.st20{fill:#00AEA7;}
	.st21{fill:#014742;}
</style>
<g id="Layer_1">
	<rect x="-13.6" y="-171.5" class="st0" width="612" height="792"/>
</g>
<g id="search">
	<g>
		<g>
			<path class="st1" d="M714.4,151c8,0,14.4,6.3,14.4,14.2v78c0,7.8-6.4,14.2-14.4,14.2h-79.2c-8,0-14.4-6.4-14.4-14.2v-78
				c0-7.8,6.4-14.2,14.4-14.2H714.4z"/>
		</g>
		<path class="st2" d="M714.4,257.4h-79.2c-8,0-14.4-6.4-14.4-14.2v8.7c0,7.8,6.4,14.2,14.4,14.2h79.2c8,0,14.4-6.4,14.4-14.2v-8.7
			C728.8,251,722.4,257.4,714.4,257.4z"/>
		<path class="st3" d="M703.4,226.1l-12-12c3.1-4.3,5-9.6,5-15.3c0-14.2-11.6-25.8-25.8-25.8s-25.8,11.6-25.8,25.8
			s11.6,25.8,25.8,25.8c4.6,0,8.9-1.2,12.6-3.3l12.5,12.5c1.1,1.1,2.5,1.6,3.9,1.6s2.8-0.5,3.9-1.6
			C705.5,231.7,705.5,228.2,703.4,226.1z M655.6,198.8c0-8.2,6.7-14.8,14.8-14.8s14.8,6.7,14.8,14.8s-6.7,14.8-14.8,14.8
			S655.6,206.9,655.6,198.8z"/>
	</g>
</g>
<g id="setting">
	<g>
		<g>
			<g>
				<path class="st4" d="M248.8,0c8,0,14.4,6.3,14.4,14.2v78c0,7.8-6.4,14.2-14.4,14.2h-79.2c-8,0-14.4-6.3-14.4-14.2v-78
					c0-7.8,6.4-14.2,14.4-14.2H248.8z"/>
			</g>
			<path class="st3" d="M241.2,60.7l-3.2-1.8c-1.3-0.8-2.1-2.2-2-3.7c0.1-0.7,0.1-1.3,0.1-2s0-1.4-0.1-2c-0.1-1.5,0.7-2.9,2-3.7
				l3.2-1.8c1.9-1.1,2.5-3.5,1.4-5.4l-5.5-9.6c-1.1-1.9-3.5-2.5-5.4-1.4l-3.2,1.8c-1.3,0.8-3,0.7-4.3-0.2c-1.1-0.7-2.2-1.3-3.3-1.9
				c-1.4-0.7-2.3-2-2.3-3.6v-3.6c0-2.2-1.8-4-4-4h-11.1c-2.2,0-4,1.8-4,4v3.6c0,1.5-0.9,2.9-2.3,3.6c-1.1,0.6-2.3,1.2-3.3,1.9
				c-1.3,0.9-2.9,1-4.3,0.2l-3.2-1.8c-1.9-1.1-4.3-0.4-5.4,1.4l-5.5,9.6c-1.1,1.9-0.4,4.3,1.4,5.4l3.2,1.8c1.3,0.8,2.1,2.2,2,3.7
				c-0.1,0.7-0.1,1.3-0.1,2s0,1.4,0.1,2c0.1,1.5-0.7,2.9-2,3.7l-3.2,1.8c-1.9,1.1-2.5,3.5-1.4,5.4l5.5,9.6c1.1,1.9,3.5,2.5,5.4,1.4
				l3.2-1.8c1.3-0.8,3-0.7,4.3,0.2c1.1,0.7,2.2,1.3,3.3,1.9c1.4,0.7,2.3,2,2.3,3.6v3.6c0,2.2,1.8,4,4,4h11.1c2.2,0,4-1.8,4-4V81
				c0-1.5,0.9-2.9,2.3-3.6c1.1-0.6,2.3-1.2,3.3-1.9c1.3-0.9,2.9-1,4.3-0.2l3.2,1.8c1.9,1.1,4.3,0.4,5.4-1.4l5.5-9.6
				C243.8,64.2,243.1,61.8,241.2,60.7z M209.2,69.7c-9.1,0-16.5-7.4-16.5-16.5s7.4-16.5,16.5-16.5c9.1,0,16.5,7.4,16.5,16.5
				S218.3,69.7,209.2,69.7z"/>
		</g>
		<path class="st5" d="M248.8,106.4h-79.2c-8,0-14.4-6.3-14.4-14.2v8.7c0,7.8,6.4,14.2,14.4,14.2h79.2c8,0,14.4-6.3,14.4-14.2v-8.7
			C263.2,100,256.8,106.4,248.8,106.4z"/>
	</g>
</g>
<g id="delete_1_">
	<g>
		<g>
			<path class="st6" d="M404,152c8,0,14.4,6.3,14.4,14.2v78c0,7.8-6.4,14.2-14.4,14.2h-79.2c-8,0-14.4-6.3-14.4-14.2v-78
				c0-7.8,6.4-14.2,14.4-14.2H404z"/>
		</g>
		<path class="st7" d="M404,258.4h-79.2c-8,0-14.4-6.3-14.4-14.2v8.7c0,7.8,6.4,14.2,14.4,14.2H404c8,0,14.4-6.3,14.4-14.2v-8.7
			C418.4,252,412,258.4,404,258.4z"/>
		<g id="delete">
			<path class="st3" d="M385.1,171h-16.7v-2c0-0.6-0.5-1.2-1.2-1.2h-5.7c-0.6,0-1.2,0.5-1.2,1.2v2h-16.7c-1.9,0-3.5,1.5-3.5,3.5v1.6
				c0,0.6,0.5,1.2,1.2,1.2h46.1c0.6,0,1.2-0.5,1.2-1.2v-1.6C388.6,172.5,387.1,171,385.1,171z"/>
			<path class="st3" d="M387.3,180.1h-45.8c-0.7,0-1.2,0.6-1.1,1.3l8.2,58c0.2,1.8,1.7,3.1,3.4,3.1h7.2c1.1,0,2-0.9,2-2v-0.2
				c0-1.1,0.9-2,2-2h2.4c1.1,0,2,0.9,2,2v0.2c0,1.1,0.9,2,2,2h7.4c1.8,0,3.3-1.3,3.4-3.1l8-58C388.5,180.7,388,180.1,387.3,180.1z"
				/>
		</g>
	</g>
</g>
<g id="add_1_">
	<g>
		<g>
			<path class="st8" d="M559.2,0c8,0,14.4,6.3,14.4,14.2v78c0,7.8-6.4,14.2-14.4,14.2H480c-8,0-14.4-6.3-14.4-14.2v-78
				C465.6,6.3,472,0,480,0H559.2z"/>
		</g>
		<path class="st9" d="M559.2,106.4H480c-8,0-14.4-6.3-14.4-14.2v8.7c0,7.8,6.4,14.2,14.4,14.2h79.2c8,0,14.4-6.3,14.4-14.2v-8.7
			C573.6,100,567.2,106.4,559.2,106.4z"/>
		<path id="add" class="st3" d="M549.6,48.7h-25.5V23.2c0-2.5-2-4.5-4.5-4.5s-4.5,2-4.5,4.5v25.5h-25.5c-2.5,0-4.5,2-4.5,4.5
			s2,4.5,4.5,4.5h25.5v25.5c0,2.5,2,4.5,4.5,4.5s4.5-2,4.5-4.5V57.7h25.5c2.5,0,4.5-2,4.5-4.5S552.1,48.7,549.6,48.7z"/>
	</g>
</g>
<g id="menu">
	<g>
		<g>
			<path class="st10" d="M93.6,152c8,0,14.4,6.3,14.4,14.2v78c0,7.8-6.4,14.2-14.4,14.2H14.4c-8,0-14.4-6.3-14.4-14.2v-78
				c0-7.8,6.4-14.2,14.4-14.2H93.6z"/>
		</g>
		<path class="st11" d="M93.6,258.4H14.4c-8,0-14.4-6.3-14.4-14.2v8.7c0,7.8,6.4,14.2,14.4,14.2h79.2c8,0,14.4-6.3,14.4-14.2v-8.7
			C108,252,101.6,258.4,93.6,258.4z"/>
		<g id="menubar">
			<g>
				<path class="st3" d="M84,193.5H24c-2.8,0-5-2.2-5-5s2.2-5,5-5h60c2.8,0,5,2.2,5,5S86.8,193.5,84,193.5z"/>
			</g>
			<g>
				<path class="st3" d="M84,210.2H24c-2.8,0-5-2.2-5-5s2.2-5,5-5h60c2.8,0,5,2.2,5,5S86.8,210.2,84,210.2z"/>
			</g>
			<g>
				<path class="st3" d="M84,226.8H24c-2.8,0-5-2.2-5-5s2.2-5,5-5h60c2.8,0,5,2.2,5,5S86.8,226.8,84,226.8z"/>
			</g>
		</g>
	</g>
</g>
<g id="send_1_">
	<g>
		<g>
			<path class="st12" d="M714.4,1.6c8,0,14.4,6.3,14.4,14.2v78c0,7.8-6.4,14.2-14.4,14.2h-79.2c-8,0-14.4-6.3-14.4-14.2v-78
				c0-7.8,6.4-14.2,14.4-14.2H714.4z"/>
		</g>
		<path class="st13" d="M714.4,108h-79.2c-8,0-14.4-6.3-14.4-14.2v8.7c0,7.8,6.4,14.2,14.4,14.2h79.2c8,0,14.4-6.3,14.4-14.2v-8.7
			C728.8,101.7,722.4,108,714.4,108z"/>
		<path id="send" class="st3" d="M674.5,35.6L644.6,44c-2,0.6-2.8,3-1.6,4.6l2.8,3.8c0.8,1.1,2.4,1.5,3.6,1l49.1-22.1
			c0.5-0.2,0.8,0.5,0.4,0.7l-44,27.4c-1.5,0.9-1.9,2.9-0.8,4.3l1,1.4l12.1,16.5c1.2,1.7,3.8,1.6,4.9-0.1l17-26L707,28.3
			c0.5-0.8-0.2-1.8-1.1-1.6L674.5,35.6z"/>
	</g>
</g>
<g id="location">
	<g>
		<g>
			<path class="st14" d="M559.2,152c8,0,14.4,6.4,14.4,14.2v78c0,7.8-6.4,14.2-14.4,14.2H480c-8,0-14.4-6.3-14.4-14.2v-78
				c0-7.8,6.4-14.2,14.4-14.2H559.2z"/>
		</g>
		<path class="st15" d="M559.2,258.4H480c-8,0-14.4-6.3-14.4-14.2v8.7c0,7.8,6.4,14.2,14.4,14.2h79.2c8,0,14.4-6.3,14.4-14.2v-8.7
			C573.6,252,567.2,258.4,559.2,258.4z"/>
		<path id="location_pin" class="st3" d="M543,183c-4.5-8.4-13.3-14-23.4-14s-18.9,5.7-23.4,14c-3.1,5.8-2.9,12.8,0.2,18.6l21,38.5
			c0.9,1.7,3.4,1.7,4.4,0l21-38.5C545.9,195.8,546.1,188.8,543,183z M519.6,205.2c-6.9,0-12.5-5.6-12.5-12.5s5.6-12.5,12.5-12.5
			s12.5,5.6,12.5,12.5S526.5,205.2,519.6,205.2z"/>
	</g>
</g>
<g id="love">
	<g>
		<g>
			<path class="st16" d="M248.8,152c8,0,14.4,6.4,14.4,14.2v78c0,7.8-6.4,14.2-14.4,14.2h-79.2c-8,0-14.4-6.3-14.4-14.2v-78
				c0-7.8,6.4-14.2,14.4-14.2H248.8z"/>
		</g>
		<path class="st17" d="M248.8,258.4h-79.2c-8,0-14.4-6.3-14.4-14.2v8.7c0,7.8,6.4,14.2,14.4,14.2h79.2c8,0,14.4-6.3,14.4-14.2v-8.7
			C263.2,252,256.8,258.4,248.8,258.4z"/>
		<path id="heart" class="st3" d="M238.1,181.2L238.1,181.2c-6.9-6.9-18.3-6.9-25.2,0l-2.3,2.3c-0.8,0.8-2,0.8-2.8,0l-2.3-2.3
			c-6.9-6.9-18.3-6.9-25.2,0l0,0c-6.9,6.9-6.9,18.3,0,25.2l3.7,3.7l23.8,23.8c0.8,0.8,2,0.8,2.8,0l23.8-23.8l3.7-3.7
			C245,199.4,245,188.1,238.1,181.2z"/>
	</g>
</g>
<g id="home_1_">
	<g>
		<g>
			<path class="st18" d="M93.6,4.3c8,0,14.4,6.3,14.4,14.2v78c0,7.8-6.4,14.2-14.4,14.2H14.4c-8,0-14.4-6.3-14.4-14.2v-78
				C0,10.7,6.4,4.3,14.4,4.3H93.6z"/>
		</g>
		<path class="st19" d="M93.6,110.7H14.4c-8,0-14.4-6.3-14.4-14.2v8.7c0,7.8,6.4,14.2,14.4,14.2h79.2c8,0,14.4-6.3,14.4-14.2v-8.7
			C108,104.4,101.6,110.7,93.6,110.7z"/>
		<path id="home" class="st3" d="M70,40.7L57.3,29.7c-1.9-1.6-4.6-1.6-6.5,0L38,40.7L23.7,52.9c-1.1,1-1.7,2.3-1.7,3.8v24.8
			c0,2.8,2.2,5,5,5h13.6c2.8,0,5-2.2,5-5V70.2c0-2.8,2.2-5,5-5h6.9c2.8,0,5,2.2,5,5v11.3c0,2.8,2.2,5,5,5H81c2.8,0,5-2.2,5-5V56.7
			c0-1.5-0.6-2.8-1.7-3.8L70,40.7z"/>
	</g>
</g>
<g id="mail_1_">
	<g>
		<g>
			<path class="st20" d="M404,0c8,0,14.4,6.3,14.4,14.2v78c0,7.8-6.4,14.2-14.4,14.2h-79.2c-8,0-14.4-6.4-14.4-14.2v-78
				c0-7.8,6.4-14.2,14.4-14.2H404z"/>
		</g>
		<path class="st21" d="M404,106.4h-79.2c-8,0-14.4-6.4-14.4-14.2v8.7c0,7.8,6.4,14.2,14.4,14.2H404c8,0,14.4-6.4,14.4-14.2v-8.7
			C418.4,100,412,106.4,404,106.4z"/>
		<g id="mail">
			<path class="st3" d="M394.5,38.6c0.9-0.5,1.3-1.5,1-2.5c-1.3-3.5-5-4.9-9.2-4.9h-43.8c-4.2,0-7.9,1.5-9.2,4.9
				c-0.4,0.9,0.1,2,1,2.5L362,52.9c1.5,0.7,3.2,0.7,4.7,0L394.5,38.6z"/>
			<g>
				<path class="st3" d="M394.5,43.3l-27.6,12.6c-1.6,0.7-3.4,0.7-5,0l-27.6-12.6c-0.7-0.3-1.4,0.2-1.4,0.9l-0.1,24c0,3.8,3.1,7,7,7
					h49.3c3.8,0,7-3.1,7-7l-0.1-24C396,43.4,395.2,43,394.5,43.3z"/>
			</g>
		</g>
	</g>
</g>
</svg>
