<svg xmlns="http://www.w3.org/2000/svg" viewBox="0 0 108 115.04"><defs><style>.cls-1{fill:#ce3c65;}.cls-2{fill:#70233b;}.cls-3{fill:#fff;}</style></defs><title>icon_5</title><g id="Layer_2" data-name="Layer 2"><g id="Layer_1-2" data-name="Layer 1"><path class="cls-1" d="M93.6,0A14.29,14.29,0,0,1,108,14.18v78a14.29,14.29,0,0,1-14.4,14.18H14.4A14.29,14.29,0,0,1,0,92.18v-78A14.29,14.29,0,0,1,14.4,0Z"/><path class="cls-2" d="M93.6,106.36H14.4A14.29,14.29,0,0,1,0,92.18v8.68A14.29,14.29,0,0,0,14.4,115H93.6A14.29,14.29,0,0,0,108,100.86V92.18A14.29,14.29,0,0,1,93.6,106.36Z"/><g id="menubar"><path class="cls-3" d="M84,41.51H24a5,5,0,0,1,0-10H84a5,5,0,0,1,0,10Z"/><path class="cls-3" d="M84,58.18H24a5,5,0,0,1,0-10H84a5,5,0,0,1,0,10Z"/><path class="cls-3" d="M84,74.85H24a5,5,0,0,1,0-10H84a5,5,0,0,1,0,10Z"/></g></g></g></svg>