<svg xmlns="http://www.w3.org/2000/svg" viewBox="0 0 108 115.04"><defs><style>.cls-1{fill:#ffcf03;}.cls-2{fill:#7f6703;}.cls-3{fill:#fff;}</style></defs><title>icon_4</title><g id="Layer_2" data-name="Layer 2"><g id="Layer_1-2" data-name="Layer 1"><path class="cls-1" d="M93.6,0A14.29,14.29,0,0,1,108,14.18v78a14.29,14.29,0,0,1-14.4,14.18H14.4A14.29,14.29,0,0,1,0,92.18v-78A14.29,14.29,0,0,1,14.4,0Z"/><path class="cls-2" d="M93.6,106.36H14.4A14.29,14.29,0,0,1,0,92.18v8.68A14.29,14.29,0,0,0,14.4,115H93.6A14.29,14.29,0,0,0,108,100.86V92.18A14.29,14.29,0,0,1,93.6,106.36Z"/><path id="send" class="cls-3" d="M53.68,34,23.79,42.4A3,3,0,0,0,22.2,47L25,50.88a3,3,0,0,0,3.64,1L77.78,29.72a.42.42,0,0,1,.39.74l-44,27.43a3,3,0,0,0-.83,4.31l1,1.38L46.49,80.1A3,3,0,0,0,51.4,80l17-26,17.83-27.3a1,1,0,0,0-1.15-1.56Z"/></g></g></svg>