<svg xmlns="http://www.w3.org/2000/svg" viewBox="0 0 108 115.04"><defs><style>.cls-1{fill:#c20000;}.cls-2{fill:#600101;}.cls-3{fill:#fff;}</style></defs><title>icon_8</title><g id="Layer_2" data-name="Layer 2"><g id="Layer_1-2" data-name="Layer 1"><path class="cls-1" d="M93.6,0A14.29,14.29,0,0,1,108,14.18v78a14.29,14.29,0,0,1-14.4,14.18H14.4A14.29,14.29,0,0,1,0,92.18v-78A14.29,14.29,0,0,1,14.4,0Z"/><path class="cls-2" d="M93.6,106.36H14.4A14.29,14.29,0,0,1,0,92.18v8.68A14.29,14.29,0,0,0,14.4,115H93.6A14.29,14.29,0,0,0,108,100.86V92.18A14.29,14.29,0,0,1,93.6,106.36Z"/><g id="delete"><path class="cls-3" d="M74.73,19H58V17a1.15,1.15,0,0,0-1.15-1.15H51.16A1.15,1.15,0,0,0,50,17v2H33.27a3.46,3.46,0,0,0-3.46,3.46V24A1.15,1.15,0,0,0,31,25.16H77A1.15,1.15,0,0,0,78.19,24V22.45A3.46,3.46,0,0,0,74.73,19Z"/><path class="cls-3" d="M76.92,28.14H31.09a1.15,1.15,0,0,0-1.15,1.27l8.22,58a3.46,3.46,0,0,0,3.44,3.11h8.06a1.15,1.15,0,0,0,1.15-1.15V87.43A1.16,1.16,0,0,1,52,86.28H56a1.16,1.16,0,0,1,1.15,1.15v1.92a1.15,1.15,0,0,0,1.15,1.15h8.27a3.46,3.46,0,0,0,3.44-3.12l8-58A1.15,1.15,0,0,0,76.92,28.14Z"/></g></g></g></svg>