<svg xmlns="http://www.w3.org/2000/svg" viewBox="0 0 108 115.04"><defs><style>.cls-1{fill:#00659b;}.cls-2{fill:#022e42;}.cls-3{fill:#fff;}</style></defs><title>icon_3</title><g id="Layer_2" data-name="Layer 2"><g id="Layer_1-2" data-name="Layer 1"><path class="cls-1" d="M93.6,0A14.29,14.29,0,0,1,108,14.18v78a14.29,14.29,0,0,1-14.4,14.18H14.4A14.29,14.29,0,0,1,0,92.18v-78A14.29,14.29,0,0,1,14.4,0Z"/><path class="cls-2" d="M93.6,106.36H14.4A14.29,14.29,0,0,1,0,92.18v8.68A14.29,14.29,0,0,0,14.4,115H93.6A14.29,14.29,0,0,0,108,100.86V92.18A14.29,14.29,0,0,1,93.6,106.36Z"/><path id="home" class="cls-3" d="M70,36.35,57.26,25.4a5,5,0,0,0-6.52,0L38,36.35,23.74,48.59A5,5,0,0,0,22,52.39V77.16a5,5,0,0,0,5,5H40.55a5,5,0,0,0,5-5V65.83a5,5,0,0,1,5-5h6.89a5,5,0,0,1,5,5V77.16a5,5,0,0,0,5,5H81a5,5,0,0,0,5-5V52.39a5,5,0,0,0-1.74-3.79Z"/></g></g></svg>