<svg xmlns="http://www.w3.org/2000/svg" viewBox="0 0 108 115.04"><defs><style>.cls-1{fill:#8ed362;}.cls-2{fill:#507538;}.cls-3{fill:#fff;}</style></defs><title>icon_7</title><g id="Layer_2" data-name="Layer 2"><g id="Layer_1-2" data-name="Layer 1"><path class="cls-1" d="M93.6,0A14.29,14.29,0,0,1,108,14.18v78a14.29,14.29,0,0,1-14.4,14.18H14.4A14.29,14.29,0,0,1,0,92.18v-78A14.29,14.29,0,0,1,14.4,0Z"/><path class="cls-2" d="M93.6,106.36H14.4A14.29,14.29,0,0,1,0,92.18v8.68A14.29,14.29,0,0,0,14.4,115H93.6A14.29,14.29,0,0,0,108,100.86V92.18A14.29,14.29,0,0,1,93.6,106.36Z"/><path id="add" class="cls-3" d="M84,48.68H58.5V23.18a4.5,4.5,0,1,0-9,0v25.5H24a4.5,4.5,0,0,0,0,9H49.5v25.5a4.5,4.5,0,1,0,9,0V57.68H84a4.5,4.5,0,0,0,0-9Z"/></g></g></svg>