<svg xmlns="http://www.w3.org/2000/svg" viewBox="0 0 108 115.04"><defs><style>.cls-1{fill:#f88600;}.cls-2{fill:#8c4504;}.cls-3{fill:#fff;}</style></defs><title>icon_1</title><g id="Layer_2" data-name="Layer 2"><g id="Layer_1-2" data-name="Layer 1"><path class="cls-1" d="M93.6,0A14.29,14.29,0,0,1,108,14.18v78a14.29,14.29,0,0,1-14.4,14.18H14.4A14.29,14.29,0,0,1,0,92.18v-78A14.29,14.29,0,0,1,14.4,0Z"/><path class="cls-2" d="M93.6,106.36H14.4A14.29,14.29,0,0,1,0,92.18v8.68A14.29,14.29,0,0,0,14.4,115H93.6A14.29,14.29,0,0,0,108,100.86V92.18A14.29,14.29,0,0,1,93.6,106.36Z"/><path class="cls-3" d="M82.56,75.06l-12-12a25.86,25.86,0,1,0-8.26,7.3L74.78,82.84a5.5,5.5,0,1,0,7.78-7.78ZM34.83,47.76A14.84,14.84,0,1,1,49.68,62.6,14.86,14.86,0,0,1,34.83,47.76Z"/></g></g></svg>