<?xml version="1.0" encoding="utf-8"?>
<!-- Generator: Adobe Illustrator 21.1.0, SVG Export Plug-In . SVG Version: 6.00 Build 0)  -->
<svg version="1.1" id="Layer_1" xmlns="http://www.w3.org/2000/svg" xmlns:xlink="http://www.w3.org/1999/xlink" x="0px" y="0px"
	 viewBox="0 0 283.6 724.5" style="enable-background:new 0 0 283.6 724.5;" xml:space="preserve">
<style type="text/css">
	.st0{display:none;fill:#231F20;}
	.st1{fill:#F88600;}
	.st2{fill:#8C4504;}
	.st3{fill:#FFFFFF;}
	.st4{fill:#199AA8;}
	.st5{fill:#0E5356;}
	.st6{fill:#C20000;}
	.st7{fill:#600101;}
	.st8{fill:#8ED362;}
	.st9{fill:#507538;}
	.st10{fill:#CE3C65;}
	.st11{fill:#70233B;}
	.st12{fill:#FFCF03;}
	.st13{fill:#7F6703;}
	.st14{fill:#DB4316;}
	.st15{fill:#72210E;}
	.st16{fill:#FF4062;}
	.st17{fill:#992941;}
	.st18{fill:#00659B;}
	.st19{fill:#054359;}
	.st20{fill:#00AEA7;}
	.st21{fill:#014742;}
</style>
<g id="Layer_1_1_">
	<rect x="-13.5" y="-171.4" class="st0" width="612" height="792"/>
</g>
<g id="search">
	<g>
		<g>
			<path class="st1" d="M269.2,609.4c8,0,14.4,6.3,14.4,14.2v78c0,7.8-6.4,14.2-14.4,14.2H190c-8,0-14.4-6.4-14.4-14.2v-78
				c0-7.8,6.4-14.2,14.4-14.2H269.2z"/>
		</g>
		<path class="st2" d="M269.2,715.8H190c-8,0-14.4-6.4-14.4-14.2v8.7c0,7.8,6.4,14.2,14.4,14.2h79.2c8,0,14.4-6.4,14.4-14.2v-8.7
			C283.6,709.4,277.2,715.8,269.2,715.8z"/>
		<path class="st3" d="M258.2,684.5l-12-12c3.1-4.3,5-9.6,5-15.3c0-14.2-11.6-25.8-25.8-25.8s-25.8,11.6-25.8,25.8
			c0,14.2,11.6,25.8,25.8,25.8c4.6,0,8.9-1.2,12.6-3.3l12.5,12.5c1.1,1.1,2.5,1.6,3.9,1.6s2.8-0.5,3.9-1.6
			C260.3,690.1,260.3,686.6,258.2,684.5z M210.4,657.2c0-8.2,6.7-14.8,14.8-14.8s14.8,6.7,14.8,14.8c0,8.1-6.7,14.8-14.8,14.8
			S210.4,665.3,210.4,657.2z"/>
	</g>
</g>
<g id="setting">
	<g>
		<g>
			<g>
				<path class="st4" d="M93.7,152.3c8,0,14.4,6.3,14.4,14.2v78c0,7.8-6.4,14.2-14.4,14.2H14.5c-8,0-14.4-6.3-14.4-14.2v-78
					c0-7.8,6.4-14.2,14.4-14.2C14.5,152.3,93.7,152.3,93.7,152.3z"/>
			</g>
			<path class="st3" d="M86.1,213l-3.2-1.8c-1.3-0.8-2.1-2.2-2-3.7c0.1-0.7,0.1-1.3,0.1-2c0-0.7,0-1.4-0.1-2c-0.1-1.5,0.7-2.9,2-3.7
				l3.2-1.8c1.9-1.1,2.5-3.5,1.4-5.4L82,183c-1.1-1.9-3.5-2.5-5.4-1.4l-3.2,1.8c-1.3,0.8-3,0.7-4.3-0.2c-1.1-0.7-2.2-1.3-3.3-1.9
				c-1.4-0.7-2.3-2-2.3-3.6v-3.6c0-2.2-1.8-4-4-4H48.4c-2.2,0-4,1.8-4,4v3.6c0,1.5-0.9,2.9-2.3,3.6c-1.1,0.6-2.3,1.2-3.3,1.9
				c-1.3,0.9-2.9,1-4.3,0.2l-3.2-1.8c-1.9-1.1-4.3-0.4-5.4,1.4l-5.5,9.6c-1.1,1.9-0.4,4.3,1.4,5.4l3.2,1.8c1.3,0.8,2.1,2.2,2,3.7
				c-0.1,0.7-0.1,1.3-0.1,2c0,0.7,0,1.4,0.1,2c0.1,1.5-0.7,2.9-2,3.7l-3.2,1.8c-1.9,1.1-2.5,3.5-1.4,5.4l5.5,9.6
				c1.1,1.9,3.5,2.5,5.4,1.4l3.2-1.8c1.3-0.8,3-0.7,4.3,0.2c1.1,0.7,2.2,1.3,3.3,1.9c1.4,0.7,2.3,2,2.3,3.6v3.6c0,2.2,1.8,4,4,4
				h11.1c2.2,0,4-1.8,4-4v-3.6c0-1.5,0.9-2.9,2.3-3.6c1.1-0.6,2.3-1.2,3.3-1.9c1.3-0.9,2.9-1,4.3-0.2l3.2,1.8
				c1.9,1.1,4.3,0.4,5.4-1.4l5.5-9.6C88.7,216.5,88,214.1,86.1,213z M54.1,222c-9.1,0-16.5-7.4-16.5-16.5c0-9.1,7.4-16.5,16.5-16.5
				s16.5,7.4,16.5,16.5C70.6,214.6,63.2,222,54.1,222z"/>
		</g>
		<path class="st5" d="M93.7,258.8H14.5c-8,0-14.4-6.3-14.4-14.2v8.7c0,7.8,6.4,14.2,14.4,14.2h79.2c8,0,14.4-6.3,14.4-14.2v-8.7
			C108.1,252.3,101.7,258.8,93.7,258.8z"/>
	</g>
</g>
<g id="delete_1_">
	<g>
		<g>
			<path class="st6" d="M269.2,302.3c8,0,14.4,6.3,14.4,14.2v78c0,7.8-6.4,14.2-14.4,14.2H190c-8,0-14.4-6.3-14.4-14.2v-78
				c0-7.8,6.4-14.2,14.4-14.2H269.2z"/>
		</g>
		<path class="st7" d="M269.2,408.7H190c-8,0-14.4-6.3-14.4-14.2v8.7c0,7.8,6.4,14.2,14.4,14.2h79.2c8,0,14.4-6.3,14.4-14.2v-8.7
			C283.6,402.3,277.2,408.7,269.2,408.7z"/>
		<g id="delete">
			<path class="st3" d="M250.3,321.3h-16.7v-2c0-0.6-0.5-1.2-1.2-1.2h-5.7c-0.6,0-1.2,0.5-1.2,1.2v2h-16.7c-1.9,0-3.5,1.5-3.5,3.5
				v1.6c0,0.6,0.5,1.2,1.2,1.2h46.1c0.6,0,1.2-0.5,1.2-1.2v-1.6C253.8,322.8,252.3,321.3,250.3,321.3z"/>
			<path class="st3" d="M252.5,330.4h-45.8c-0.7,0-1.2,0.6-1.1,1.3l8.2,58c0.2,1.8,1.7,3.1,3.4,3.1h7.2c1.1,0,2-0.9,2-2v-0.2
				c0-1.1,0.9-2,2-2h2.4c1.1,0,2,0.9,2,2v0.2c0,1.1,0.9,2,2,2h7.4c1.8,0,3.3-1.3,3.4-3.1l8-58C253.7,331,253.2,330.4,252.5,330.4z"
				/>
		</g>
	</g>
</g>
<g id="add_1_">
	<g>
		<g>
			<path class="st8" d="M93.6,457c8,0,14.4,6.3,14.4,14.2v78c0,7.8-6.4,14.2-14.4,14.2H14.4c-8,0-14.4-6.3-14.4-14.2v-78
				c0-7.9,6.4-14.2,14.4-14.2H93.6z"/>
		</g>
		<path class="st9" d="M93.6,563.5H14.4c-8,0-14.4-6.3-14.4-14.2v8.7c0,7.8,6.4,14.2,14.4,14.2h79.2c8,0,14.4-6.3,14.4-14.2v-8.7
			C108,557,101.6,563.5,93.6,563.5z"/>
		<path id="add" class="st3" d="M84,505.7H58.5v-25.5c0-2.5-2-4.5-4.5-4.5s-4.5,2-4.5,4.5v25.5H24c-2.5,0-4.5,2-4.5,4.5
			c0,2.5,2,4.5,4.5,4.5h25.5v25.5c0,2.5,2,4.5,4.5,4.5s4.5-2,4.5-4.5v-25.5H84c2.5,0,4.5-2,4.5-4.5C88.5,507.7,86.5,505.7,84,505.7z
			"/>
	</g>
</g>
<g id="menu">
	<g>
		<g>
			<path class="st10" d="M269.2,0.7c8,0,14.4,6.3,14.4,14.2v78c0,7.8-6.4,14.2-14.4,14.2H190c-8,0-14.4-6.3-14.4-14.2v-78
				c0-7.8,6.4-14.2,14.4-14.2H269.2z"/>
		</g>
		<path class="st11" d="M269.2,107.1H190c-8,0-14.4-6.3-14.4-14.2v8.7c0,7.8,6.4,14.2,14.4,14.2h79.2c8,0,14.4-6.3,14.4-14.2v-8.7
			C283.6,100.7,277.2,107.1,269.2,107.1z"/>
		<g id="menubar">
			<g>
				<path class="st3" d="M259.6,42.2h-60c-2.8,0-5-2.2-5-5s2.2-5,5-5h60c2.8,0,5,2.2,5,5S262.4,42.2,259.6,42.2z"/>
			</g>
			<g>
				<path class="st3" d="M259.6,58.9h-60c-2.8,0-5-2.2-5-5s2.2-5,5-5h60c2.8,0,5,2.2,5,5S262.4,58.9,259.6,58.9z"/>
			</g>
			<g>
				<path class="st3" d="M259.6,75.5h-60c-2.8,0-5-2.2-5-5s2.2-5,5-5h60c2.8,0,5,2.2,5,5S262.4,75.5,259.6,75.5z"/>
			</g>
		</g>
	</g>
</g>
<g id="send_1_">
	<g>
		<g>
			<path class="st12" d="M93.7,609.4c8,0,14.4,6.3,14.4,14.2v78c0,7.8-6.4,14.2-14.4,14.2H14.5c-8,0-14.4-6.3-14.4-14.2v-78
				c0-7.8,6.4-14.2,14.4-14.2C14.5,609.4,93.7,609.4,93.7,609.4z"/>
		</g>
		<path class="st13" d="M93.7,715.8H14.5c-8,0-14.4-6.3-14.4-14.2v8.7c0,7.8,6.4,14.2,14.4,14.2h79.2c8,0,14.4-6.3,14.4-14.2v-8.7
			C108.1,709.5,101.7,715.8,93.7,715.8z"/>
		<path id="send" class="st3" d="M53.8,643.4l-29.9,8.4c-2,0.6-2.8,3-1.6,4.6l2.8,3.8c0.8,1.1,2.4,1.5,3.6,1l49.1-22.1
			c0.5-0.2,0.8,0.5,0.4,0.7l-44,27.4c-1.5,0.9-1.9,2.9-0.8,4.3l1,1.4l12.1,16.5c1.2,1.7,3.8,1.6,4.9-0.1l17-26l17.9-27.2
			c0.5-0.8-0.2-1.8-1.1-1.6L53.8,643.4z"/>
	</g>
</g>
<g id="location">
	<g>
		<g>
			<path class="st14" d="M269.1,455.9c8,0,14.4,6.4,14.4,14.2v78c0,7.8-6.4,14.2-14.4,14.2h-79.2c-8,0-14.4-6.3-14.4-14.2v-78
				c0-7.8,6.4-14.2,14.4-14.2H269.1z"/>
		</g>
		<path class="st15" d="M269.1,562.3h-79.2c-8,0-14.4-6.3-14.4-14.2v8.7c0,7.8,6.4,14.2,14.4,14.2h79.2c8,0,14.4-6.3,14.4-14.2v-8.7
			C283.5,555.9,277.1,562.3,269.1,562.3z"/>
		<path id="location_pin" class="st3" d="M252.9,486.9c-4.5-8.4-13.3-14-23.4-14s-18.9,5.7-23.4,14c-3.1,5.8-2.9,12.8,0.2,18.6
			l21,38.5c0.9,1.7,3.4,1.7,4.4,0l21-38.5C255.8,499.7,256,492.7,252.9,486.9z M229.5,509.1c-6.9,0-12.5-5.6-12.5-12.5
			s5.6-12.5,12.5-12.5s12.5,5.6,12.5,12.5S236.4,509.1,229.5,509.1z"/>
	</g>
</g>
<g id="love">
	<g>
		<g>
			<path class="st16" d="M269.2,152c8,0,14.4,6.4,14.4,14.2v78c0,7.8-6.4,14.2-14.4,14.2H190c-8,0-14.4-6.3-14.4-14.2v-78
				c0-7.8,6.4-14.2,14.4-14.2H269.2z"/>
		</g>
		<path class="st17" d="M269.2,258.4H190c-8,0-14.4-6.3-14.4-14.2v8.7c0,7.8,6.4,14.2,14.4,14.2h79.2c8,0,14.4-6.3,14.4-14.2v-8.7
			C283.6,252,277.2,258.4,269.2,258.4z"/>
		<path id="heart" class="st3" d="M258.5,181.2L258.5,181.2c-6.9-6.9-18.3-6.9-25.2,0l-2.3,2.3c-0.8,0.8-2,0.8-2.8,0l-2.3-2.3
			c-6.9-6.9-18.3-6.9-25.2,0l0,0c-6.9,6.9-6.9,18.3,0,25.2l3.7,3.7l23.8,23.8c0.8,0.8,2,0.8,2.8,0l23.8-23.8l3.7-3.7
			C265.4,199.4,265.4,188.1,258.5,181.2z"/>
	</g>
</g>
<g id="home_1_">
	<g>
		<g>
			<path class="st18" d="M93.7,0c8,0,14.4,6.3,14.4,14.2v78c0,7.8-6.4,14.2-14.4,14.2H14.5c-8,0-14.4-6.3-14.4-14.2v-78
				C0.1,6.4,6.5,0,14.5,0H93.7z"/>
		</g>
		<path class="st19" d="M93.7,106.4H14.5c-8,0-14.4-6.3-14.4-14.2v8.7c0,7.8,6.4,14.2,14.4,14.2h79.2c8,0,14.4-6.3,14.4-14.2v-8.7
			C108.1,100.1,101.7,106.4,93.7,106.4z"/>
		<path id="home" class="st3" d="M70.1,36.4l-12.7-11c-1.9-1.6-4.6-1.6-6.5,0l-12.8,11L23.8,48.6c-1.1,1-1.7,2.3-1.7,3.8v24.8
			c0,2.8,2.2,5,5,5h13.6c2.8,0,5-2.2,5-5V65.9c0-2.8,2.2-5,5-5h6.9c2.8,0,5,2.2,5,5v11.3c0,2.8,2.2,5,5,5h13.5c2.8,0,5-2.2,5-5V52.4
			c0-1.5-0.6-2.8-1.7-3.8L70.1,36.4z"/>
	</g>
</g>
<g id="mail_1_">
	<g>
		<g>
			<path class="st20" d="M93.6,304.7c8,0,14.4,6.3,14.4,14.2v78c0,7.8-6.4,14.2-14.4,14.2H14.4c-8,0-14.4-6.4-14.4-14.2v-78
				c0-7.8,6.4-14.2,14.4-14.2C14.4,304.7,93.6,304.7,93.6,304.7z"/>
		</g>
		<path class="st21" d="M93.6,411.1H14.4c-8,0-14.4-6.4-14.4-14.2v8.7c0,7.8,6.4,14.2,14.4,14.2h79.2c8,0,14.4-6.4,14.4-14.2v-8.7
			C108,404.7,101.6,411.1,93.6,411.1z"/>
		<g id="mail">
			<path class="st3" d="M84.1,343.3c0.9-0.5,1.3-1.5,1-2.5c-1.3-3.5-5-4.9-9.2-4.9H32.1c-4.2,0-7.9,1.5-9.2,4.9
				c-0.4,0.9,0.1,2,1,2.5l27.7,14.3c1.5,0.7,3.2,0.7,4.7,0L84.1,343.3z"/>
			<g>
				<path class="st3" d="M84.1,348l-27.6,12.6c-1.6,0.7-3.4,0.7-5,0L23.9,348c-0.7-0.3-1.4,0.2-1.4,0.9l-0.1,24c0,3.8,3.1,7,7,7
					h49.3c3.8,0,7-3.1,7-7l-0.1-24C85.6,348.1,84.8,347.7,84.1,348z"/>
			</g>
		</g>
	</g>
</g>
</svg>
