<?xml version="1.0" encoding="utf-8"?>
<!-- Generator: Adobe Illustrator 21.1.0, SVG Export Plug-In . SVG Version: 6.00 Build 0)  -->
<svg version="1.1" id="Layer_1" xmlns="http://www.w3.org/2000/svg" xmlns:xlink="http://www.w3.org/1999/xlink" x="0px" y="0px"
	 viewBox="0 0 574.4 83.8" style="enable-background:new 0 0 574.4 83.8;" xml:space="preserve">
<style type="text/css">
	.st0{fill:#ADD8E6;}
	.st1{font-family:'UTM-Ericsson-Capital';}
	.st2{font-size:74.3127px;}
	.st3{fill:#464646;}
</style>
<text transform="matrix(1 0 0 1 114.7981 66.7202)" class="st0 st1 st2">squarebox</text>
<g>
	<path class="st3" d="M17,24.2H7.2C3.2,24.2,0,21,0,17V7.2C0,3.2,3.2,0,7.2,0H17c4,0,7.2,3.2,7.2,7.2V17C24.2,21,21,24.2,17,24.2z"
		/>
	<path class="st0" d="M46.8,24.2H37c-4,0-7.2-3.2-7.2-7.2V7.2C29.8,3.2,33,0,37,0h9.8c4,0,7.2,3.2,7.2,7.2V17
		C54,21,50.8,24.2,46.8,24.2z"/>
	<path class="st3" d="M76.6,24.2h-9.8c-4,0-7.2-3.2-7.2-7.2V7.2c0-4,3.2-7.2,7.2-7.2h9.8c4,0,7.2,3.2,7.2,7.2V17
		C83.8,21,80.5,24.2,76.6,24.2z"/>
	<path class="st0" d="M17,54H7.2c-4,0-7.2-3.2-7.2-7.2V37c0-4,3.2-7.2,7.2-7.2H17c4,0,7.2,3.2,7.2,7.2v9.8C24.2,50.8,21,54,17,54z"
		/>
	<path class="st3" d="M46.8,54H37c-4,0-7.2-3.2-7.2-7.2V37c0-4,3.2-7.2,7.2-7.2h9.8c4,0,7.2,3.2,7.2,7.2v9.8
		C54,50.8,50.8,54,46.8,54z"/>
	<path class="st0" d="M76.6,54h-9.8c-4,0-7.2-3.2-7.2-7.2V37c0-4,3.2-7.2,7.2-7.2h9.8c4,0,7.2,3.2,7.2,7.2v9.8
		C83.8,50.8,80.5,54,76.6,54z"/>
	<path class="st3" d="M17,83.8H7.2c-4,0-7.2-3.2-7.2-7.2v-9.8c0-4,3.2-7.2,7.2-7.2H17c4,0,7.2,3.2,7.2,7.2v9.8
		C24.2,80.5,21,83.8,17,83.8z"/>
	<path class="st0" d="M46.8,83.8H37c-4,0-7.2-3.2-7.2-7.2v-9.8c0-4,3.2-7.2,7.2-7.2h9.8c4,0,7.2,3.2,7.2,7.2v9.8
		C54,80.5,50.8,83.8,46.8,83.8z"/>
	<path class="st3" d="M76.6,83.8h-9.8c-4,0-7.2-3.2-7.2-7.2v-9.8c0-4,3.2-7.2,7.2-7.2h9.8c4,0,7.2,3.2,7.2,7.2v9.8
		C83.8,80.5,80.5,83.8,76.6,83.8z"/>
</g>
</svg>
