<svg xmlns="http://www.w3.org/2000/svg" xmlns:xlink="http://www.w3.org/1999/xlink" viewBox="0 0 108 115.04"><defs><style>.cls-1{fill:none;}.cls-2{isolation:isolate;}.cls-3{fill:#e53958;}.cls-4{clip-path:url(#clip-path);}.cls-5{fill:#942539;}.cls-6{fill:#8f2437;}.cls-7{fill:#8a2335;}.cls-8{fill:#852133;}.cls-9{fill:#802031;}.cls-10{clip-path:url(#clip-path-2);}.cls-11{fill:#fff;}</style><clipPath id="clip-path"><path class="cls-1" d="M108,92.18v8.68A14.29,14.29,0,0,1,93.6,115v-8.68A14.29,14.29,0,0,0,108,92.18Z"/></clipPath><clipPath id="clip-path-2"><path class="cls-1" d="M14.4,106.36V115A14.3,14.3,0,0,1,0,100.86V92.18A14.3,14.3,0,0,0,14.4,106.36Z"/></clipPath></defs><title>love</title><g id="Layer_2" data-name="Layer 2"><g id="Layer_1-2" data-name="Layer 1"><g class="cls-2"><path class="cls-3" d="M93.6,0A14.29,14.29,0,0,1,108,14.18v78a14.29,14.29,0,0,1-14.4,14.18H14.4A14.3,14.3,0,0,1,0,92.18v-78A14.29,14.29,0,0,1,14.4,0Z"/><g class="cls-2"><g class="cls-4"><g class="cls-2"><path class="cls-5" d="M108,92.18v8.68a14,14,0,0,1-.33,3V95.19a14,14,0,0,0,.33-3"/><path class="cls-6" d="M107.67,95.19v8.68a13.93,13.93,0,0,1-1,2.9V98.09a13.93,13.93,0,0,0,1-2.9"/><path class="cls-7" d="M106.69,98.09v8.68a14.15,14.15,0,0,1-1.74,2.82v-8.68a14.15,14.15,0,0,0,1.74-2.82"/><path class="cls-8" d="M104.95,100.91v8.68A14.45,14.45,0,0,1,93.6,115v-8.68a14.45,14.45,0,0,0,11.35-5.45"/></g></g></g><rect class="cls-9" x="14.4" y="106.36" width="79.2" height="8.68"/><g class="cls-2"><g class="cls-10"><g class="cls-2"><path class="cls-8" d="M14.4,106.36V115A14.3,14.3,0,0,1,0,100.86V92.18a14.3,14.3,0,0,0,14.4,14.18"/></g></g></g></g><path id="heart" class="cls-11" d="M82.86,29.51h0a17.86,17.86,0,0,0-25.18,0l-2.26,2.26a2,2,0,0,1-2.83,0l-2.26-2.26a17.86,17.86,0,0,0-25.18,0h0a17.86,17.86,0,0,0,0,25.18l3.67,3.67L52.59,82.13a2,2,0,0,0,2.83,0L79.18,58.36l3.67-3.67A17.86,17.86,0,0,0,82.86,29.51Z"/></g></g></svg>