<svg xmlns="http://www.w3.org/2000/svg" xmlns:xlink="http://www.w3.org/1999/xlink" viewBox="0 0 108 115.04"><defs><style>.cls-1{fill:none;}.cls-2{isolation:isolate;}.cls-3{fill:#de7800;}.cls-4{clip-path:url(#clip-path);}.cls-5{fill:#904e00;}.cls-6{fill:#8b4b00;}.cls-7{fill:#864800;}.cls-8{fill:#814600;}.cls-9{fill:#7c4300;}.cls-10{clip-path:url(#clip-path-2);}.cls-11{fill:#fff;}</style><clipPath id="clip-path"><path class="cls-1" d="M108,92.18v8.68A14.29,14.29,0,0,1,93.6,115v-8.68A14.29,14.29,0,0,0,108,92.18Z"/></clipPath><clipPath id="clip-path-2"><path class="cls-1" d="M14.4,106.36V115A14.29,14.29,0,0,1,0,100.86V92.18A14.29,14.29,0,0,0,14.4,106.36Z"/></clipPath></defs><title>search</title><g id="Layer_2" data-name="Layer 2"><g id="Layer_1-2" data-name="Layer 1"><g class="cls-2"><path class="cls-3" d="M93.6,0A14.29,14.29,0,0,1,108,14.18v78a14.29,14.29,0,0,1-14.4,14.18H14.4A14.29,14.29,0,0,1,0,92.18v-78A14.29,14.29,0,0,1,14.4,0Z"/><g class="cls-2"><g class="cls-4"><g class="cls-2"><path class="cls-5" d="M108,92.18v8.68a14,14,0,0,1-.33,3V95.2a14,14,0,0,0,.33-3"/><path class="cls-6" d="M107.67,95.2v8.68a13.93,13.93,0,0,1-1,2.9V98.09a13.93,13.93,0,0,0,1-2.9"/><path class="cls-7" d="M106.69,98.09v8.68a14.14,14.14,0,0,1-1.74,2.82v-8.68a14.14,14.14,0,0,0,1.74-2.82"/><path class="cls-8" d="M105,100.91v8.68A14.45,14.45,0,0,1,93.6,115v-8.68A14.45,14.45,0,0,0,105,100.91"/></g></g></g><rect class="cls-9" x="14.4" y="106.36" width="79.2" height="8.68"/><g class="cls-2"><g class="cls-10"><g class="cls-2"><path class="cls-8" d="M14.4,106.36V115A14.29,14.29,0,0,1,0,100.86V92.18a14.29,14.29,0,0,0,14.4,14.18"/></g></g></g></g><path class="cls-11" d="M82.56,75.4l-12-12a25.86,25.86,0,1,0-8.26,7.3L74.78,83.18a5.5,5.5,0,1,0,7.78-7.78ZM34.84,48.1A14.84,14.84,0,1,1,49.68,62.94,14.86,14.86,0,0,1,34.84,48.1Z"/></g></g></svg>