<svg xmlns="http://www.w3.org/2000/svg" xmlns:xlink="http://www.w3.org/1999/xlink" viewBox="0 0 108 115.04"><defs><style>.cls-1{fill:none;}.cls-2{isolation:isolate;}.cls-3{fill:#168a97;}.cls-4{clip-path:url(#clip-path);}.cls-5{fill:#0f5961;}.cls-6{fill:#0e565e;}.cls-7{fill:#0e535b;}.cls-8{fill:#0d5057;}.cls-9{fill:#0d4d54;}.cls-10{clip-path:url(#clip-path-2);}.cls-11{fill:#fff;}</style><clipPath id="clip-path"><path class="cls-1" d="M108,92.18v8.68A14.29,14.29,0,0,1,93.6,115v-8.68A14.29,14.29,0,0,0,108,92.18Z"/></clipPath><clipPath id="clip-path-2"><path class="cls-1" d="M14.4,106.36V115A14.29,14.29,0,0,1,0,100.86V92.18A14.29,14.29,0,0,0,14.4,106.36Z"/></clipPath></defs><title>setting</title><g id="Layer_2" data-name="Layer 2"><g id="Layer_1-2" data-name="Layer 1"><g class="cls-2"><path class="cls-3" d="M93.6,0A14.29,14.29,0,0,1,108,14.18v78a14.29,14.29,0,0,1-14.4,14.18H14.4A14.29,14.29,0,0,1,0,92.18v-78A14.3,14.3,0,0,1,14.4,0Z"/><g class="cls-2"><g class="cls-4"><g class="cls-2"><path class="cls-5" d="M108,92.18v8.68a14,14,0,0,1-.33,3V95.2a14,14,0,0,0,.33-3"/><path class="cls-6" d="M107.67,95.2v8.68a13.93,13.93,0,0,1-1,2.9V98.09a13.93,13.93,0,0,0,1-2.9"/><path class="cls-7" d="M106.69,98.09v8.68a14.14,14.14,0,0,1-1.74,2.82v-8.68a14.14,14.14,0,0,0,1.74-2.82"/><path class="cls-8" d="M105,100.91v8.68A14.45,14.45,0,0,1,93.6,115v-8.68A14.45,14.45,0,0,0,105,100.91"/></g></g></g><rect class="cls-9" x="14.4" y="106.36" width="79.2" height="8.68"/><g class="cls-2"><g class="cls-10"><g class="cls-2"><path class="cls-8" d="M14.4,106.36V115A14.29,14.29,0,0,1,0,100.86V92.18a14.29,14.29,0,0,0,14.4,14.18"/></g></g></g></g><path id="setting" class="cls-11" d="M86.1,60.17l-2.42-1.25a2.67,2.67,0,0,1-1.41-2.65q.13-1.36.13-2.75t-.13-2.75a2.67,2.67,0,0,1,1.41-2.65l2.42-1.25a5,5,0,0,0,2.12-6.66l-3.59-6.94A5,5,0,0,0,78,31.15L75.55,32.4a2.7,2.7,0,0,1-3-.38,28.39,28.39,0,0,0-8-4.86,2.69,2.69,0,0,1-1.71-2.49V22A5,5,0,0,0,57.91,17H50.1A5,5,0,0,0,45.15,22v2.7a2.69,2.69,0,0,1-1.71,2.49,28.39,28.39,0,0,0-8,4.86,2.7,2.7,0,0,1-3,.38L30,31.15a5,5,0,0,0-6.66,2.12l-3.59,6.94a5,5,0,0,0,2.12,6.66l2.42,1.25a2.67,2.67,0,0,1,1.41,2.65q-.13,1.36-.13,2.75t.13,2.75a2.67,2.67,0,0,1-1.41,2.65l-2.42,1.25a5,5,0,0,0-2.12,6.66l3.59,6.94A5,5,0,0,0,30,75.89l2.41-1.25a2.7,2.7,0,0,1,3,.38,28.39,28.39,0,0,0,8,4.86,2.69,2.69,0,0,1,1.71,2.49v2.7A5,5,0,0,0,50.1,90h7.81a5,5,0,0,0,4.94-4.94v-2.7a2.69,2.69,0,0,1,1.71-2.49,28.39,28.39,0,0,0,8-4.86,2.7,2.7,0,0,1,3-.38L78,75.89a5,5,0,0,0,6.66-2.12l3.59-6.94A5,5,0,0,0,86.1,60.17ZM54,69.43a15.9,15.9,0,1,1,15.9-15.9A15.9,15.9,0,0,1,54,69.43Z"/></g></g></svg>